<?xml version="1.0" encoding="UTF-8"?>
<!DOCTYPE svg PUBLIC "-//W3C//DTD SVG 1.1//EN" "http://www.w3.org/Graphics/SVG/1.1/DTD/svg11.dtd">
<!-- Creator: CorelDRAW 2019 (64-Bit) -->
<svg xmlns="http://www.w3.org/2000/svg" xml:space="preserve" width="313px" height="957px" version="1.1" style="shape-rendering:geometricPrecision; text-rendering:geometricPrecision; image-rendering:optimizeQuality; fill-rule:evenodd; clip-rule:evenodd"
viewBox="0 0 17.869 54.64"
 xmlns:xlink="http://www.w3.org/1999/xlink"
 xmlns:xodm="http://www.corel.com/coreldraw/odm/2003">
 <defs>
  <style type="text/css">
   <![CDATA[
    .fil0 {fill:#e9117e;fill-rule:nonzero}
   ]]>
  </style>
 </defs>
 <g id="Слой_x0020_1">
  <metadata id="CorelCorpID_0Corel-Layer"/>
  <g>
   <path class="fil0" d="M6.044 4.762l0.224 0.481c0.103,0.258 0.842,1.34 0.844,1.343l0.035 0.051 -0.005 0.059c0,0.003 -0.076,0.919 -0.121,1.367 -0.048,0.485 -0.727,0.77 -0.779,0.792l-1.352 0.574 -0.081 -0.143 -0.69 0.258 0.037 0.127 -0.135 0.061c-0.001,0.001 -0.389,0.179 -0.576,0.261 -0.098,0.043 -0.194,0.091 -0.314,0.182 -0.127,0.096 -0.285,0.243 -0.507,0.488 -0.358,0.393 -0.407,1.536 -0.427,2.024 -0.004,0.082 -0.007,0.147 -0.009,0.18 -0.006,0.089 -0.014,0.29 -0.023,0.554 -0.028,0.777 -0.076,2.081 -0.162,2.559 -0.052,0.282 -0.131,0.816 -0.205,1.348 -0.085,0.613 -0.162,1.223 -0.181,1.434 -0.015,0.168 -0.085,0.498 -0.175,0.875l0 0c-0.13,0.542 -0.3,1.181 -0.408,1.571 -0.081,0.296 -0.144,0.694 -0.187,1.09 -0.049,0.465 -0.07,0.924 -0.058,1.211 0.023,0.551 -0.33,3.966 -0.343,4.086l0 0c0,0.003 -0.074,0.904 -0.102,1.398 -0.02,0.353 0.122,0.564 0.195,0.675 0.026,0.037 0.045,0.067 0.059,0.098 0.025,0.056 0.044,0.113 0.059,0.197 0.014,0.075 0.023,0.171 0.029,0.309 0.003,0.05 0.026,0.087 0.056,0.114 0.063,0.056 0.152,0.079 0.197,0.084 0.098,0.01 0.169,0.041 0.273,0.087 0.051,0.022 0.11,0.048 0.171,0.072 0.108,0.042 0.312,-0.052 0.407,-0.095 0.022,-0.01 0.039,-0.018 0.058,-0.025 0.015,-0.006 0.071,-0.044 0.143,-0.096 0.104,-0.074 0.226,-0.167 0.319,-0.239l-0.161 -0.012 -0.162 -0.099 -0.05 -0.085 -0.037 -0.061 -0.369 0.212 -0.298 -0.064 -0.325 -0.488c-0.058,-0.143 -0.064,-0.262 -0.014,-0.439 0.016,-0.059 0.034,-0.121 0.046,-0.178 0.021,-0.103 0.076,-0.216 0.136,-0.318 0.055,-0.095 0.115,-0.18 0.153,-0.231l0.232 -0.041c0.004,0.004 0.011,0.007 0.018,0.011 0.101,0.054 0.266,0.141 0.29,0.453 0.01,0.134 0.023,0.266 0.04,0.382 0.015,0.1 0.031,0.187 0.05,0.251 0.019,0.065 0.052,0.12 0.078,0.156l0.003 -0.017c0.001,-0.008 0,-0.002 0.001,-0.006l0 -0.001c0,0 -0.001,0.003 0,-0.004l0 0 0.001 -0.007c0.01,-0.084 0.017,-0.174 0.022,-0.259 0.006,-0.12 0.008,-0.242 0.008,-0.317 0,-0.087 -0.007,-0.19 -0.017,-0.295 -0.012,-0.13 -0.031,-0.273 -0.05,-0.4 -0.016,-0.106 -0.02,-0.179 -0.025,-0.266 -0.005,-0.098 -0.012,-0.217 -0.043,-0.444 -0.051,-0.379 -0.321,-0.742 -0.322,-0.743l-0.046 -0.063 0.017 -0.076c0,-0.002 0.172,-0.768 0.345,-1.369 0.148,-0.514 0.391,-1.026 0.609,-1.484 0.05,-0.107 0.1,-0.212 0.12,-0.254 0.113,-0.242 0.288,-0.707 0.46,-1.202 0.186,-0.531 0.367,-1.094 0.466,-1.455 0.142,-0.516 0.171,-1.113 0.191,-1.528 0.006,-0.136 0.012,-0.253 0.021,-0.349 0.016,-0.174 0.092,-0.567 0.181,-0.983 0.11,-0.513 0.24,-1.065 0.304,-1.287 0.021,-0.073 0.036,-0.128 0.047,-0.166l0.394 -0.231c0.091,0.369 0.135,0.705 0.181,1.048 0.025,0.193 0.051,0.389 0.089,0.608 0.06,0.136 0.351,0.852 0.208,1.642 -0.075,0.417 -0.136,0.705 -0.197,0.924 -0.064,0.231 -0.128,0.389 -0.207,0.541 -0.033,0.063 -0.073,0.135 -0.107,0.196 -0.071,0.127 -0.111,0.198 -0.111,0.264l0 0.038 -0.145 0.232c-0.001,0 -0.067,0.008 -0.077,0.031 -0.013,0.03 -0.032,0.067 -0.057,0.114 -0.075,0.14 -0.208,0.387 -0.327,0.821 -0.087,0.318 -0.273,1.198 -0.432,2.045 -0.126,0.673 -0.233,1.322 -0.258,1.646 -0.037,0.483 -0.133,1.155 -0.204,1.662 -0.039,0.274 -0.071,0.5 -0.082,0.615 -0.033,0.329 -0.033,1.669 -0.033,1.673l0 0.114 -0.132 0.055 0.053 1.024c0.015,0.007 0.035,0.012 0.061,0.012l0 0.001 0.401 -0.002 0.007 0.164c0.011,0.24 0.033,0.665 0.061,1.038 0.018,0.233 0.038,0.438 0.059,0.544 0.04,0.2 0.14,0.702 0.245,1.235 0.066,0.335 0.133,0.677 0.184,0.942 0.069,0.362 0.186,0.953 0.281,1.426 0.074,0.361 0.14,0.676 0.174,0.816 0.044,0.186 0.102,0.605 0.142,1.024 0.034,0.361 0.056,0.724 0.045,0.943 -0.013,0.253 -0.071,0.685 -0.129,1.106 -0.048,0.356 -0.095,0.704 -0.111,0.919 -0.004,0.061 -0.015,0.17 -0.028,0.304 -0.066,0.676 -0.197,2.03 -0.009,2.951 0.158,0.774 0.341,2.053 0.459,2.879 0.054,0.38 0.095,0.665 0.112,0.755 0.014,0.073 0.066,0.337 0.13,0.659 0.099,0.507 0.225,1.144 0.273,1.387l0.027 0.137 -0.13 0.053c-0.03,0.013 -0.062,0.028 -0.095,0.046 -0.032,0.018 -0.066,0.041 -0.103,0.069 -0.081,0.063 -0.226,0.193 -0.381,0.336 -0.229,0.211 -0.481,0.455 -0.578,0.552 -0.093,0.093 -0.413,0.316 -0.719,0.508 -0.267,0.167 -0.531,0.314 -0.643,0.338 -0.1,0.021 -0.23,0.064 -0.326,0.117 -0.041,0.022 -0.068,0.022 -0.069,0.029 -0.018,0.136 -0.238,0.198 -0.238,0.224 -0.023,0.898 -0.018,0.674 0.099,0.762 0.198,-0.001 0.61,0.026 1,0.053 0.335,0.022 0.654,0.044 0.794,0.044 0.088,0 0.224,0.009 0.389,0.021 0.4,0.028 0.982,0.07 1.447,0.006 0.135,-0.018 1.702,-0.096 1.702,-0.11 0,-0.289 0.038,-0.65 -0.171,-0.973 -0.045,-0.461 -0.007,-0.245 -0.028,-0.77 -0.015,-0.071 -0.093,-0.429 -0.153,-0.622l-0.008 -0.028c-0.053,-0.173 -0.107,-0.35 -0.269,-0.468l-0.054 -0.04 -0.013 -0.068c-0.016,-0.092 -0.038,-0.24 -0.047,-0.416 -0.009,-0.178 -0.004,-0.386 0.032,-0.598 0.085,-0.5 0.151,-1.147 0.22,-1.811 0.108,-1.06 0.222,-2.164 0.425,-2.814 0.079,-0.255 0.123,-0.671 0.131,-1.13 0.008,-0.481 -0.023,-1.006 -0.091,-1.442 -0.062,-0.4 -0.114,-0.888 -0.153,-1.347 -0.049,-0.584 -0.078,-1.128 -0.078,-1.386 0,-0.215 0.052,-0.729 0.107,-1.27 0.062,-0.615 0.128,-1.266 0.122,-1.525 -0.005,-0.207 0.031,-0.593 0.082,-1.014 0.077,-0.653 0.191,-1.406 0.24,-1.701 0.034,-0.205 0.114,-0.588 0.196,-0.983 0.109,-0.526 0.223,-1.074 0.236,-1.229 0.005,-0.062 0.008,-0.157 0.009,-0.269 0.001,-0.12 0.001,-0.26 0.001,-0.401l-0.001 -0.197 0.195 0.027c0.027,0.004 0.055,0.006 0.075,0.004 0.021,-0.083 0.055,-0.289 0.085,-0.502 0.039,-0.268 0.072,-0.538 0.07,-0.577l0 -0.001c-0.003,-0.036 0.004,-0.029 0.005,-0.028l-0.03 -0.04 -0.004 -0.048c0,-0.003 -0.049,-0.979 -0.049,-1.361 0.022,-0.38 0.059,-0.538 0.059,-0.539l0.092 -0.216 0.19 -0.125 0.277 0.327c0.024,0.088 0.057,0.312 0.095,0.57 0.055,0.377 0.121,0.829 0.17,0.964 0.105,0.289 0.072,0.574 0.072,0.575l-0.009 0.075 -0.062 0.044c0,0 -0.019,0.013 0.007,0.174 0.044,0.273 0.095,0.749 0.095,0.751l0.002 0.012 0 0.006c0,0 0,-0.013 0.048,-0.027l0.163 -0.047 0.453 1.524 0.001 0.007c0.001,0.003 0.351,1.35 0.414,1.751 0.036,0.225 0.127,0.928 0.202,1.511 0.056,0.43 0.103,0.794 0.112,0.844l0.038 0.194c0.061,0.317 0.174,0.897 0.192,1.062 0.013,0.113 0.077,0.405 0.173,0.706 0.066,0.209 0.145,0.417 0.229,0.565 0.21,0.372 0.493,1.093 0.54,1.215 0.047,0.077 0.2,0.376 0.19,0.996 -0.006,0.362 0.027,1.094 0.08,1.739 0.042,0.52 0.095,0.974 0.145,1.107 0.063,0.166 0.249,0.631 0.435,1.095 0.187,0.468 0.374,0.935 0.437,1.101 0.115,0.304 0.438,1.605 0.563,2.112l0.036 0.145c0.047,0.184 0.107,0.558 0.145,0.921 0.031,0.291 0.047,0.578 0.031,0.758 -0.006,0.06 -0.001,0.122 0.009,0.181 0.01,0.06 0.027,0.118 0.047,0.171l-0.027 0.165c-0.042,0.053 -0.082,0.114 -0.111,0.182 -0.028,0.065 -0.047,0.136 -0.049,0.212 -0.011,0.453 0.08,1.532 0.08,1.535l0.015 0.173 -0.174 0.011c0,0 -0.064,0.004 -0.063,0.022 0.005,0.174 0.061,0.576 0.061,0.577l0.001 0.007 0 0.011c0,0.001 0.002,0.058 0.092,0.064 0.424,0.03 0.942,0.054 1.433,0.072 0.883,0.033 1.692,0.05 1.743,0.048 0.01,0 0.027,-0.136 0.029,-0.158 0.034,-0.375 -0.035,-0.545 -0.035,-0.545l-0.004 -0.114c0,0 0.014,-0.038 -0.15,-0.197 -0.129,-0.126 -0.267,-0.29 -0.38,-0.447 -0.115,-0.159 -0.208,-0.316 -0.245,-0.428l-0.006 -0.019c-0.06,-0.18 -0.2,-0.6 -0.317,-0.657 -0.03,-0.014 -0.072,-0.032 -0.12,-0.051 -0.064,-0.025 -0.125,-0.047 -0.178,-0.066l-0.1 -0.282 0.038 -0.285c-0.008,-0.224 -0.11,-3.113 -0.01,-3.852 0.054,-0.391 0.107,-1.114 0.136,-1.766 0.026,-0.583 0.033,-1.103 0.003,-1.263 -0.015,-0.082 -0.031,-0.222 -0.052,-0.405 -0.08,-0.702 -0.235,-2.061 -0.636,-2.75 -0.271,-0.465 -0.459,-0.964 -0.591,-1.43 -0.131,-0.463 -0.206,-0.893 -0.253,-1.225 -0.044,-0.317 -0.083,-0.872 -0.111,-1.462 -0.029,-0.634 -0.045,-1.311 -0.039,-1.773 0.008,-0.573 0.08,-1.535 0.134,-2.26 0.031,-0.417 0.057,-0.755 0.06,-0.883 0.003,-0.09 0.012,-0.191 0.025,-0.295 0.015,-0.125 0.036,-0.261 0.058,-0.389l0.065 -0.384 0.239 0.307 0.012 0.016c0.038,-0.022 0.088,-0.057 0.126,-0.099 0.014,-0.016 0.026,-0.023 0.026,-0.026 -0.019,-0.103 -0.045,-0.444 -0.069,-0.78 -0.018,-0.234 -0.035,-0.466 -0.047,-0.593 -0.012,-0.122 -0.018,-0.364 -0.025,-0.653 -0.014,-0.578 -0.032,-1.349 -0.108,-1.658 -0.121,-0.488 -0.668,-2.874 -0.669,-2.881 -0.026,-0.099 -0.471,-1.791 -0.508,-1.892 -0.039,-0.105 -0.232,-0.798 -0.248,-0.855l-0.001 0c0,0 0.004,0.012 -0.022,0.005l-0.086 -0.027 -0.027 -0.085c-0.025,-0.081 -0.123,-0.383 -0.22,-0.613 -0.05,-0.117 -0.097,-0.213 -0.125,-0.24 -0.171,-0.158 -0.203,-0.414 -0.24,-0.713 -0.008,-0.065 -0.016,-0.13 -0.019,-0.155 -0.021,-0.149 -0.022,-0.454 -0.013,-0.768 0.011,-0.427 0.041,-0.881 0.06,-0.978 0.098,-0.486 0.194,-0.902 0.299,-1.309 0.105,-0.409 0.217,-0.804 0.345,-1.244l0.332 0.012c0.037,0.174 0.108,0.466 0.179,0.748 0.079,0.313 0.156,0.607 0.188,0.711 0.065,0.214 0.264,1.344 0.437,2.323l0.15 0.849c0.139,0.771 0.297,1.049 0.454,1.325 0.044,0.078 0.088,0.155 0.136,0.25 0.141,0.283 0.505,1.309 0.756,2.017 0.129,0.363 0.228,0.643 0.245,0.68 0.069,0.145 0.195,0.42 0.195,0.421l0.037 0.079 -0.075 0.129c0.001,0.041 0.003,0.104 0.007,0.171l0.186 0.182c0.026,0.135 0,0.385 0,0.386l0 0c0,0.001 -0.028,0.267 -0.184,0.466 -0.067,0.084 -0.169,0.243 -0.252,0.412 -0.06,0.121 -0.109,0.245 -0.125,0.344 -0.017,0.097 -0.022,0.195 -0.027,0.292 -0.01,0.172 -0.019,0.342 -0.083,0.533 -0.036,0.109 -0.073,0.455 -0.099,0.82 -0.032,0.438 -0.048,0.89 -0.031,0.996 0.009,0.055 0.03,0.105 0.054,0.145 0.025,0.042 0.052,0.073 0.069,0.092l0.049 0.092 -0.069 0.162c0.115,-0.013 0.26,-0.043 0.412,-0.106l0.023 -0.009 0.025 -0.003c0.01,-0.001 0.019,-0.002 0.024,-0.003l0.009 -0.003c0.15,-0.053 0.493,-0.172 0.494,-0.172l0.021 -0.007 0.022 -0.002c0.001,0 0.239,-0.012 0.331,-0.012 0.037,0 0.216,-0.617 0.341,-0.98 0.114,-0.331 0.095,-0.509 0.095,-0.51l-0.002 -0.013 0 -1.409c0,-0.562 -0.056,-1.575 -0.056,-1.578l0.185 -0.192c0.001,-0.15 0.001,-0.324 -0.008,-0.353 -0.002,-0.007 -0.054,-0.068 -0.112,-0.136 -0.067,-0.079 -0.14,-0.165 -0.189,-0.244 -0.085,-0.138 -0.128,-0.713 -0.16,-1.141 -0.014,-0.18 -0.025,-0.332 -0.035,-0.399 -0.013,-0.102 -0.03,-0.41 -0.05,-0.78 -0.031,-0.596 -0.072,-1.358 -0.12,-1.622 -0.038,-0.215 -0.153,-0.601 -0.271,-0.971 -0.119,-0.374 -0.242,-0.729 -0.293,-0.877 -0.08,-0.232 -0.271,-1.375 -0.4,-2.149 -0.049,-0.293 -0.09,-0.534 -0.109,-0.639 -0.029,-0.158 -0.073,-0.433 -0.121,-0.738 -0.085,-0.538 -0.186,-1.169 -0.242,-1.387 -0.077,-0.3 -0.137,-1.223 -0.175,-1.821 -0.009,-0.142 -0.017,-0.265 -0.024,-0.367 -0.016,-0.221 -0.088,-0.524 -0.168,-0.807 -0.084,-0.294 -0.173,-0.559 -0.223,-0.703 -0.051,-0.149 -0.167,-0.229 -0.277,-0.305 -0.068,-0.047 -0.135,-0.094 -0.196,-0.155l-0.001 0c-0.119,-0.119 -0.165,-0.146 -0.193,-0.156l-1.274 -0.329 -0.032 -0.216 -0.754 -0.213 -0.212 0.1c-0.004,-0.001 -1.263,-0.402 -1.606,-0.556 -0.385,-0.172 -0.41,-0.449 -0.409,-0.521l-0.001 0c0,-0.001 0,-0.219 -0.044,-0.524 -0.023,-0.162 -0.032,-0.368 -0.03,-0.576 0.002,-0.222 0.017,-0.448 0.042,-0.625 0.055,-0.396 0.491,-0.769 0.493,-0.77l0.015 -0.013 0.022 -0.01c0.001,-0.001 0.45,-0.207 0.45,-0.212 0,-0.021 0.003,-0.063 0.006,-0.117 0.012,-0.18 0.034,-0.524 -0.023,-0.742 -0.063,-0.243 -0.03,-0.347 0.024,-0.514 0.023,-0.074 0.052,-0.164 0.076,-0.3 0.032,-0.186 0.013,-0.505 -0.047,-0.873 -0.059,-0.359 -0.158,-0.761 -0.289,-1.131 -0.219,-0.622 -0.796,-0.7 -0.879,-0.708l-0.414 0.038 -0.046 -0.027c-0.001,-0.001 -0.181,-0.106 -0.3,-0.146 -0.064,-0.021 -0.125,-0.05 -0.192,-0.082 -0.102,-0.049 -0.221,-0.105 -0.338,-0.13 -0.092,-0.019 -0.286,-0.024 -0.51,-0.018 -0.245,0.006 -0.523,0.026 -0.747,0.054 -0.168,0.022 -0.324,0.123 -0.445,0.226l0.247 0.012 -0.26 0.271c-0.001,0.001 -0.359,0.371 -0.544,0.578 -0.075,0.084 -0.156,0.295 -0.221,0.533 -0.071,0.265 -0.118,0.553 -0.112,0.742 0.005,0.181 0.001,0.384 -0.008,0.586 -0.009,0.209 -0.024,0.421 -0.04,0.61l-0.015 0.592 0.045 0.52 0.198 -0.471 0.058 0.165zm-0.582 -1.551c0.005,-0.155 0.006,-0.306 0.002,-0.442 -0.006,-0.223 0.045,-0.548 0.124,-0.839 0.077,-0.284 0.184,-0.546 0.297,-0.672 0.084,-0.095 0.193,-0.212 0.292,-0.316l-0.184 -0.009 0.19 -0.257c0.001,-0.002 0.396,-0.549 0.915,-0.616 0.235,-0.03 0.526,-0.051 0.782,-0.058 0.249,-0.006 0.47,0.001 0.588,0.026 0.158,0.033 0.295,0.098 0.414,0.154 0.06,0.029 0.116,0.056 0.153,0.068 0.109,0.037 0.245,0.108 0.315,0.147l0.34 -0.031 0.011 0.001c0.002,0 0.877,0.052 1.189,0.936 0.137,0.389 0.241,0.811 0.303,1.19 0.066,0.404 0.085,0.763 0.047,0.986 -0.027,0.156 -0.06,0.261 -0.088,0.346 -0.035,0.109 -0.056,0.177 -0.018,0.324 0.07,0.273 0.046,0.651 0.033,0.849 -0.002,0.043 -0.004,0.075 -0.004,0.096 0,0.187 -0.508,0.451 -0.623,0.508 -0.064,0.057 -0.329,0.308 -0.362,0.543 -0.022,0.166 -0.036,0.375 -0.038,0.581 -0.002,0.191 0.006,0.379 0.027,0.526 0.048,0.334 0.048,0.571 0.048,0.572l0 0.004 -0.002 0.013c0,0.001 -0.01,0.095 0.208,0.192 0.257,0.115 1.112,0.394 1.44,0.5l0.077 -0.133 1.348 0.381 -0.056 0.179 0.933 0.24 0.013 0.004c0.001,0.001 0.233,0.083 0.42,0.269l-0.001 0c0.041,0.041 0.094,0.078 0.149,0.116 0.155,0.107 0.317,0.219 0.406,0.475 0.053,0.153 0.146,0.43 0.229,0.722 0.085,0.301 0.162,0.627 0.18,0.875 0.006,0.083 0.015,0.216 0.024,0.369 0.038,0.588 0.096,1.493 0.165,1.759 0.061,0.236 0.162,0.874 0.248,1.418 0.048,0.302 0.091,0.574 0.12,0.729 0.024,0.131 0.063,0.363 0.11,0.645 0.128,0.765 0.316,1.893 0.386,2.094 0.051,0.149 0.175,0.508 0.295,0.885 0.122,0.381 0.241,0.783 0.282,1.013 0.052,0.289 0.093,1.061 0.126,1.666 0.019,0.362 0.035,0.664 0.047,0.752 0.012,0.086 0.023,0.238 0.037,0.418 0.029,0.393 0.069,0.92 0.111,0.988 0.037,0.06 0.1,0.133 0.157,0.201 0.084,0.098 0.159,0.187 0.181,0.264 0.031,0.107 0.018,0.676 0.018,0.677l-0.171 0.169c0.017,0.337 0.046,0.975 0.046,1.371l0 1.405c0.003,0.063 0.005,0.298 -0.112,0.638 -0.119,0.346 -0.312,0.8 -0.335,0.853 -0.019,0.058 -0.114,0.302 -0.313,0.302 -0.073,0 -0.23,0.007 -0.287,0.01 -0.075,0.026 -0.351,0.109 -0.494,0.16 -0.015,0.005 -0.034,0.01 -0.057,0.015 -0.011,0.002 -0.021,0.003 -0.031,0.005 -0.419,0.167 -0.719,0.169 -0.72,0.169l-0.074 -0.193c0,0 -0.049,-0.163 0.016,-0.277 0.005,-0.008 0.01,-0.016 0.016,-0.024l-0.007 -0.011c-0.042,-0.071 -0.081,-0.161 -0.098,-0.268 -0.02,-0.13 -0.089,-0.61 -0.056,-1.066 0.028,-0.387 0.07,-0.763 0.117,-0.903 0.049,-0.146 0.057,-0.294 0.065,-0.445 0.006,-0.107 0.012,-0.215 0.031,-0.33 0.023,-0.134 0.084,-0.291 0.156,-0.438 0.095,-0.192 0.212,-0.374 0.29,-0.473 0.071,-0.091 0.099,-0.206 0.108,-0.259l-0.145 -0.185c-0.036,-0.143 -0.045,-0.588 -0.045,-0.59l-0.001 -0.046 0.034 -0.059c-0.043,-0.094 -0.115,-0.25 -0.157,-0.339 -0.027,-0.058 -0.128,-0.341 -0.258,-0.71 -0.25,-0.703 -0.61,-1.72 -0.739,-1.978 -0.04,-0.079 -0.084,-0.157 -0.128,-0.234 -0.171,-0.301 -0.344,-0.604 -0.493,-1.434 -0.075,-0.419 -0.112,-0.625 -0.151,-0.851 -0.172,-0.973 -0.37,-2.097 -0.427,-2.282 -0.036,-0.12 -0.115,-0.419 -0.193,-0.727l-0.03 -0.122c-0.058,0.206 -0.112,0.406 -0.164,0.607 -0.102,0.401 -0.198,0.812 -0.294,1.291 -0.017,0.083 -0.043,0.509 -0.054,0.92 -0.008,0.298 -0.008,0.584 0.01,0.714 0.011,0.082 0.016,0.122 0.021,0.159 0.029,0.233 0.053,0.432 0.131,0.504 0.069,0.063 0.142,0.201 0.208,0.359 0.087,0.203 0.168,0.441 0.21,0.569 0.124,0.073 0.159,0.185 0.159,0.185l0.001 0.004c0,0.002 0.202,0.724 0.241,0.831 0.042,0.113 0.517,1.924 0.519,1.929l0.001 0.005c0.002,0.007 0.548,2.393 0.668,2.875 0.084,0.343 0.103,1.138 0.117,1.732 0.007,0.282 0.013,0.518 0.024,0.629 0.015,0.16 0.031,0.379 0.048,0.6 0.024,0.33 0.049,0.664 0.064,0.744 0.022,0.121 -0.029,0.228 -0.108,0.316 -0.094,0.105 -0.242,0.188 -0.302,0.211 -0.032,0.012 -0.064,0.018 -0.095,0.018 -0.006,0.044 -0.012,0.088 -0.017,0.132 -0.013,0.1 -0.021,0.192 -0.023,0.263 -0.005,0.154 -0.03,0.489 -0.061,0.899 -0.054,0.727 -0.126,1.692 -0.133,2.239 -0.006,0.453 0.009,1.123 0.039,1.755 0.026,0.578 0.064,1.121 0.108,1.429 0.044,0.319 0.117,0.734 0.243,1.179 0.125,0.442 0.303,0.914 0.558,1.351 0.437,0.751 0.597,2.158 0.68,2.885 0.02,0.177 0.035,0.313 0.048,0.379 0.035,0.186 0.029,0.735 0.002,1.341 -0.029,0.661 -0.083,1.396 -0.138,1.796 -0.101,0.74 0.012,3.8 0.013,3.809l0 0.014 -0.037 0.276 0.061 0.023c0.05,0.02 0.099,0.041 0.142,0.061 0.247,0.12 0.419,0.637 0.492,0.858l0.007 0.019c0.025,0.076 0.1,0.2 0.198,0.334 0.104,0.144 0.228,0.292 0.341,0.403 0.209,0.204 0.246,0.376 0.247,0.469 0.025,0.085 0.075,0.31 0.044,0.661 -0.01,0.119 -0.046,0.211 -0.088,0.28 -0.081,0.131 -0.211,0.188 -0.271,0.19 -0.053,0.002 -0.876,-0.014 -1.765,-0.047 -0.505,-0.019 -1.029,-0.044 -1.443,-0.072 -0.348,-0.025 -0.401,-0.302 -0.409,-0.375 -0.001,-0.002 -0.059,-0.42 -0.065,-0.617 -0.006,-0.191 0.107,-0.285 0.212,-0.33 -0.025,-0.311 -0.078,-1.053 -0.069,-1.429 0.003,-0.124 0.032,-0.237 0.075,-0.338 0.029,-0.066 0.064,-0.128 0.102,-0.183 -0.013,-0.045 -0.025,-0.093 -0.033,-0.142 -0.015,-0.085 -0.021,-0.175 -0.012,-0.27 0.014,-0.155 -0.002,-0.419 -0.031,-0.693 -0.036,-0.345 -0.093,-0.7 -0.136,-0.872l-0.037 -0.147c-0.124,-0.501 -0.443,-1.787 -0.551,-2.073 -0.063,-0.165 -0.249,-0.629 -0.434,-1.094 -0.188,-0.468 -0.375,-0.936 -0.438,-1.101 -0.063,-0.166 -0.122,-0.654 -0.167,-1.201 -0.052,-0.648 -0.086,-1.394 -0.08,-1.771 0.011,-0.616 -0.138,-0.81 -0.139,-0.811l-0.012 -0.017 -0.009 -0.022c0,-0.002 -0.31,-0.807 -0.526,-1.188 -0.099,-0.175 -0.187,-0.405 -0.258,-0.63 -0.101,-0.321 -0.171,-0.642 -0.186,-0.771 -0.016,-0.151 -0.127,-0.723 -0.188,-1.036 -0.015,-0.078 -0.027,-0.135 -0.038,-0.198 -0.01,-0.058 -0.058,-0.426 -0.114,-0.861 -0.075,-0.578 -0.165,-1.274 -0.201,-1.501 -0.059,-0.372 -0.381,-1.619 -0.406,-1.714l0 0 -0.362 -1.218c-0.289,0.004 -0.314,-0.272 -0.317,-0.322 -0.007,-0.071 -0.054,-0.487 -0.091,-0.723 -0.035,-0.216 0.015,-0.352 0.064,-0.428 0.003,-0.07 0,-0.221 -0.056,-0.377 -0.062,-0.168 -0.131,-0.639 -0.188,-1.032 -0.021,-0.146 -0.041,-0.281 -0.057,-0.381 -0.007,0.067 -0.012,0.15 -0.012,0.253 0,0.336 0.07,1.206 0.083,1.37 0.013,0.035 0.027,0.084 0.031,0.149 0.004,0.06 -0.031,0.361 -0.072,0.647 -0.035,0.242 -0.075,0.48 -0.101,0.566 -0.036,0.122 -0.118,0.186 -0.219,0.214 -0.01,0.003 -0.021,0.006 -0.032,0.008 0,0.083 0,0.163 -0.001,0.236 -0.001,0.129 -0.004,0.234 -0.009,0.292 -0.014,0.173 -0.13,0.734 -0.242,1.272 -0.081,0.39 -0.16,0.768 -0.194,0.97 -0.048,0.29 -0.16,1.032 -0.238,1.685 -0.049,0.412 -0.084,0.783 -0.08,0.967 0.007,0.281 -0.06,0.941 -0.123,1.566 -0.054,0.527 -0.104,1.028 -0.104,1.236 0,0.251 0.028,0.784 0.076,1.358 0.039,0.461 0.09,0.943 0.149,1.322 0.071,0.456 0.103,1.001 0.095,1.5 -0.009,0.492 -0.057,0.942 -0.146,1.227 -0.193,0.619 -0.304,1.704 -0.411,2.747 -0.069,0.671 -0.136,1.325 -0.223,1.833 -0.031,0.185 -0.035,0.368 -0.027,0.525 0.006,0.123 0.018,0.229 0.031,0.308 0.207,0.177 0.273,0.392 0.337,0.601l0.008 0.026c0.071,0.23 0.164,0.665 0.164,0.667l0.003 0.013 0 0.017c0,0.002 -0.114,0.624 -0.048,0.635 0.194,0.029 0.239,0.268 0.24,0.269l0.002 0.011 0 0.011c0,0 0.006,0.134 0.022,0.301 0.015,0.152 -0.009,0.275 -0.025,0.336 0.004,0.045 0.01,0.124 0.01,0.206 0,0.268 -0.359,0.323 -0.36,0.323l-0.008 0.001 -0.015 0.001c-0.002,0 -0.95,0.034 -1.616,0.124 -0.502,0.068 -1.103,0.026 -1.517,-0.004 -0.155,-0.011 -0.282,-0.02 -0.365,-0.02 -0.142,0 -0.471,-0.022 -0.817,-0.045 -0.388,-0.026 -0.799,-0.054 -0.974,-0.052 -0.495,0.004 -0.502,-0.28 -0.497,-0.339l-0.001 0c0,-0.002 0.052,-0.673 0.055,-0.773 0.004,-0.161 0.13,-0.226 0.24,-0.252l0.001 -0.008c0.015,-0.119 0.113,-0.214 0.242,-0.285 0.126,-0.07 0.293,-0.125 0.42,-0.152 0.072,-0.015 0.296,-0.143 0.534,-0.292 0.284,-0.178 0.577,-0.382 0.656,-0.461 0.095,-0.094 0.349,-0.34 0.59,-0.562 0.159,-0.147 0.311,-0.282 0.404,-0.354 0.047,-0.037 0.096,-0.069 0.144,-0.096l0.004 -0.002 -0.248 -1.258c-0.057,-0.289 -0.107,-0.543 -0.13,-0.661 -0.018,-0.098 -0.06,-0.386 -0.115,-0.77 -0.118,-0.827 -0.301,-2.104 -0.455,-2.86 -0.198,-0.971 -0.063,-2.358 0.004,-3.051 0.011,-0.116 0.021,-0.212 0.027,-0.296 0.016,-0.219 0.064,-0.575 0.114,-0.94 0.056,-0.414 0.114,-0.84 0.126,-1.077 0.01,-0.203 -0.011,-0.549 -0.044,-0.894 -0.038,-0.405 -0.093,-0.805 -0.134,-0.977 -0.034,-0.139 -0.101,-0.46 -0.176,-0.829 -0.106,-0.524 -0.221,-1.104 -0.283,-1.428 -0.043,-0.222 -0.112,-0.574 -0.184,-0.941 -0.094,-0.475 -0.197,-0.996 -0.244,-1.234 -0.024,-0.119 -0.046,-0.339 -0.065,-0.585 -0.022,-0.291 -0.041,-0.633 -0.053,-0.885l-0.075 0 0 0.001c-0.228,0 -0.358,-0.158 -0.358,-0.158l-0.038 -0.044 -0.067 -1.315c-0.066,0.05 -0.134,0.1 -0.194,0.143 -0.092,0.066 -0.173,0.118 -0.22,0.136l-0.038 0.017c-0.137,0.063 -0.431,0.197 -0.673,0.103 -0.082,-0.032 -0.138,-0.056 -0.185,-0.077 -0.076,-0.033 -0.127,-0.056 -0.17,-0.061 -0.087,-0.009 -0.261,-0.054 -0.388,-0.168 -0.093,-0.082 -0.164,-0.197 -0.171,-0.354 -0.005,-0.124 -0.013,-0.205 -0.024,-0.264 -0.009,-0.051 -0.021,-0.085 -0.036,-0.12 -0.002,-0.004 -0.014,-0.022 -0.029,-0.045 -0.096,-0.143 -0.28,-0.417 -0.253,-0.884 0.029,-0.522 0.102,-1.404 0.102,-1.407l0.001 -0.003c0.001,-0.01 0.364,-3.506 0.342,-4.042 -0.013,-0.303 0.008,-0.78 0.059,-1.26 0.044,-0.412 0.111,-0.829 0.198,-1.145 0.108,-0.393 0.279,-1.03 0.405,-1.559l-0.001 0c0.087,-0.363 0.154,-0.676 0.167,-0.825 0.018,-0.208 0.097,-0.826 0.184,-1.452 0.073,-0.529 0.153,-1.065 0.207,-1.362 0.082,-0.452 0.129,-1.742 0.157,-2.51 0.01,-0.278 0.017,-0.49 0.023,-0.567 0.003,-0.048 0.006,-0.102 0.008,-0.168 0.023,-0.526 0.075,-1.757 0.516,-2.242 0.234,-0.258 0.409,-0.419 0.554,-0.529 0.152,-0.115 0.267,-0.172 0.383,-0.223 0.144,-0.063 0.319,-0.143 0.437,-0.197l-0.043 -0.148 1.262 -0.472 0.074 0.131 1.073 -0.455c0.002,-0.001 0.541,-0.214 0.57,-0.509 0.03,-0.3 0.096,-1.082 0.115,-1.303 -0.142,-0.209 -0.684,-1.013 -0.826,-1.313 -0.016,0.024 -0.027,0.046 -0.032,0.064 -0.034,0.137 -0.061,0.218 -0.061,0.218l-0.331 -0.029c-0.001,-0.004 -0.174,-1.23 -0.138,-1.627l0.003 -0.035 0.051 -0.794zm-2.937 26.679c0.004,-0.404 0.013,-0.887 0.033,-1.08 0.012,-0.127 0.044,-0.353 0.083,-0.628 0.071,-0.5 0.165,-1.163 0.201,-1.641 0.026,-0.335 0.136,-0.998 0.264,-1.682 0.159,-0.852 0.349,-1.744 0.439,-2.073 0.129,-0.471 0.273,-0.739 0.354,-0.892 0.02,-0.036 0.036,-0.065 0.045,-0.087 0.041,-0.097 0.122,-0.156 0.194,-0.19 0.006,-0.14 0.061,-0.239 0.154,-0.407 0.027,-0.047 0.057,-0.101 0.102,-0.188 0.07,-0.134 0.126,-0.273 0.182,-0.474 0.058,-0.211 0.117,-0.489 0.19,-0.894 0.139,-0.767 -0.191,-1.456 -0.192,-1.458l-0.01 -0.022 -0.004 -0.022c-0.037,-0.213 -0.066,-0.429 -0.094,-0.643 -0.012,-0.093 -0.024,-0.186 -0.038,-0.278 -0.064,0.261 -0.143,0.61 -0.214,0.941 -0.088,0.408 -0.162,0.788 -0.176,0.942 -0.008,0.082 -0.014,0.199 -0.02,0.335 -0.021,0.43 -0.051,1.048 -0.203,1.602 -0.101,0.371 -0.285,0.942 -0.472,1.478 -0.176,0.503 -0.355,0.979 -0.474,1.233 -0.057,0.123 -0.088,0.188 -0.12,0.255 -0.213,0.45 -0.451,0.951 -0.59,1.433 -0.139,0.479 -0.277,1.074 -0.324,1.277 0.092,0.139 0.224,0.403 0.272,0.76 0.033,0.242 0.063,0.436 0.069,0.54 0.004,0.075 0.008,0.138 0.022,0.235 0.019,0.123 0.038,0.271 0.052,0.417 0.011,0.123 0.007,0.284 0.007,0.373 0,0.071 -0.002,0.194 -0.009,0.334 -0.004,0.073 0.008,0.341 -0.002,0.446 0.147,0.09 0.153,0.138 0.279,0.058zm13.22 -0.729c0,0 0,-0.058 0.022,-0.153 0.019,-0.08 0.033,-0.148 0.046,-0.21 0.053,-0.253 0.07,-0.43 0.223,-0.726 0.029,-0.056 0.062,-0.096 0.1,-0.123l0 0c0.07,-0.05 0.138,0.005 0.211,0.03 0.051,0.017 0.076,0.086 0.114,0.131 0.054,0.064 0.059,0.101 0.092,0.196 0.071,0.208 0.028,1.027 0.017,1.124l-0.215 0.162c0,0 -0.052,-0.084 -0.129,-0.161 -0.005,-0.011 -0.033,-0.034 -0.069,-0.06 -0.037,-0.027 -0.077,-0.049 -0.106,-0.057 -0.053,-0.015 -0.148,0.016 -0.148,0.016l-0.158 0.064 0 -0.233zm0.316 -0.19c0.028,0.002 0.055,0.006 0.081,0.014 0.049,0.013 0.102,0.038 0.153,0.068 -0.005,-0.268 -0.017,-0.584 -0.046,-0.671l-0.012 -0.031c-0.086,0.191 -0.115,0.333 -0.155,0.522l-0.021 0.098zm-14.658 -0.21c-0.011,0.018 -0.022,0.036 -0.033,0.054 -0.044,0.074 -0.083,0.153 -0.096,0.215 -0.015,0.071 -0.033,0.137 -0.051,0.201 -0.033,0.118 -0.063,0.225 -0.049,0.259 0.026,0.065 0.159,0.26 0.259,0.401 0.04,-0.034 0.086,-0.069 0.135,-0.099 0.019,-0.012 0.113,-0.077 0.128,-0.088 -0.033,-0.054 -0.063,-0.13 -0.085,-0.205 -0.024,-0.082 -0.044,-0.185 -0.06,-0.297 -0.001,-0.008 -0.026,-0.345 -0.148,-0.441z"/>
  </g>
 </g>
</svg>
