<?xml version="1.0" encoding="UTF-8"?>
<!DOCTYPE svg PUBLIC "-//W3C//DTD SVG 1.1//EN" "http://www.w3.org/Graphics/SVG/1.1/DTD/svg11.dtd">
<!-- Creator: CorelDRAW 2019 (64-Bit) -->
<svg xmlns="http://www.w3.org/2000/svg" xml:space="preserve" width="331px" height="957px" version="1.1" style="shape-rendering:geometricPrecision; text-rendering:geometricPrecision; image-rendering:optimizeQuality; fill-rule:evenodd; clip-rule:evenodd"
viewBox="0 0 17.5 50.613"
 xmlns:xlink="http://www.w3.org/1999/xlink"
 xmlns:xodm="http://www.corel.com/coreldraw/odm/2003">
 <defs>
  <style type="text/css">
   <![CDATA[
    .fil0 {fill:#3974c8;fill-rule:nonzero}
   ]]>
  </style>
 </defs>
 <g id="Слой_x0020_1">
  <metadata id="CorelCorpID_0Corel-Layer"/>
  <path class="fil0" d="M13.509 46.657c-0.09,0.104 -0.187,0.222 -0.258,0.321 -0.043,0.06 -0.071,0.1 -0.071,0.102 -0.003,0.031 -0.012,0.081 -0.024,0.147l0 0c-0.027,0.144 -0.07,0.373 -0.079,0.566 -0.014,0.295 -0.021,0.502 -0.021,0.502l-0.001 0.029 -0.01 0.025c0,0.001 -0.089,0.222 -0.1,0.325 -0.003,0.026 -0.008,0.059 -0.013,0.096 -0.016,0.116 -0.039,0.274 -0.019,0.354 0.011,0.042 0.047,0.109 0.084,0.176 0.064,0.118 0.129,0.237 0.129,0.346 0,0.042 -0.006,0.082 -0.012,0.123l-0.001 0c-0.009,0.056 -0.019,0.12 0.015,0.137l0 0c0.046,0.023 0.086,0.049 0.133,0.079 0.169,0.109 0.434,0.28 0.986,0.306 0.343,0.016 0.697,-0.003 0.988,-0.04 0.301,-0.039 0.523,-0.091 0.577,-0.137 0.064,-0.054 0.139,-0.129 0.196,-0.221 0.054,-0.086 0.094,-0.19 0.094,-0.309 0,-0.192 0.003,-0.369 0.004,-0.466 -0.065,-0.031 -0.216,-0.207 -0.314,-0.427 -0.06,-0.135 -0.113,-0.292 -0.131,-0.444 -0.021,-0.175 -0.073,-0.437 -0.13,-0.675 -0.053,-0.223 -0.111,-0.425 -0.154,-0.516l0 0c-0.053,-0.112 -0.125,-0.25 -0.196,-0.36 -0.049,-0.077 -0.094,-0.137 -0.124,-0.158 -0.025,-0.017 -0.059,-0.042 -0.096,-0.071 -0.042,-0.032 -0.082,-0.063 -0.117,-0.091l0.072 -0.281c-0.045,-0.078 -0.074,-0.176 -0.035,-0.306 0.02,-0.068 0.047,-0.163 0.071,-0.267 0.023,-0.104 0.044,-0.222 0.054,-0.343 0.005,-0.062 0.009,-0.124 0.013,-0.194 0.02,-0.318 0.049,-0.786 0.133,-0.967 0.038,-0.083 0.066,-0.29 0.077,-0.525 0.009,-0.226 0.001,-0.471 -0.034,-0.653 -0.043,-0.229 -0.008,-0.561 0.027,-0.89 0.031,-0.289 0.062,-0.576 0.034,-0.755 -0.058,-0.385 -0.177,-1.782 -0.215,-2.237l-0.007 -0.085c-0.011,-0.127 -0.041,-0.276 -0.075,-0.413 -0.048,-0.191 -0.103,-0.357 -0.132,-0.418 -0.036,-0.076 -0.117,-0.305 -0.18,-0.561 -0.043,-0.172 -0.079,-0.359 -0.091,-0.527 -0.013,-0.19 -0.04,-0.373 -0.076,-0.527 -0.033,-0.142 -0.072,-0.254 -0.113,-0.317 -0.102,-0.156 -0.103,-0.375 -0.104,-0.559 0,-0.051 -0.001,-0.098 -0.004,-0.144 -0.006,-0.067 -0.006,-0.187 -0.006,-0.313 0,-0.175 -0.001,-0.363 -0.01,-0.386 -0.026,-0.061 -0.052,-0.221 -0.077,-0.37 -0.018,-0.112 -0.035,-0.218 -0.043,-0.239 -0.019,-0.053 -0.069,-0.379 -0.105,-0.693 -0.026,-0.231 -0.046,-0.461 -0.043,-0.582 0.004,-0.159 0.011,-0.518 0.013,-0.805 0.001,-0.186 0,-0.34 -0.005,-0.385 -0.015,-0.128 0.024,-2.407 0.027,-2.552 -0.004,-0.066 -0.072,-1.475 -0.21,-2.014 -0.149,-0.581 -0.464,-2.056 -0.465,-2.061 -0.017,-0.07 -0.218,-0.891 -0.239,-1.14 -0.011,-0.142 -0.037,-0.397 -0.062,-0.599 -0.017,-0.136 -0.031,-0.241 -0.035,-0.25 -0.037,-0.084 -0.157,-1.002 -0.157,-1.005l-0.002 -0.01 -0.075 -1.135c-0.005,-0.024 -0.024,-0.102 -0.068,-0.168l-0.094 -0.139 0.144 -0.086c0.025,-0.014 0.045,-0.027 0.058,-0.037 0,0 0,0 0,0.001l0.001 0.001c0.05,-0.084 0.133,-0.247 0.189,-0.397 0.032,-0.088 0.054,-0.161 0.048,-0.186 -0.029,-0.123 0.008,-0.354 0.044,-0.576 0.017,-0.11 0.035,-0.217 0.042,-0.304 0.017,-0.2 -0.129,-0.498 -0.129,-0.499l-0.036 -0.073 0.038 -0.071c0.001,-0.001 0.131,-0.242 0.161,-0.343 0.025,-0.086 -0.04,-0.628 -0.04,-0.629l0.3 -0.087c0.001,0.002 0.376,0.78 0.472,0.993 0.079,0.175 0.25,0.295 0.25,0.295l0.081 0.056 -0.014 0.096c0,0.001 -0.025,0.165 -0.007,0.287 0.012,0.083 0.194,0.515 0.33,0.838 0.061,0.144 0.113,0.268 0.138,0.331 0.039,0.101 0.155,0.323 0.286,0.563 0.131,0.239 0.281,0.504 0.382,0.683 0.098,0.172 0.213,0.46 0.314,0.757 0.117,0.342 0.219,0.702 0.258,0.911 0.034,0.184 0,0.346 -0.062,0.479 -0.094,0.201 -0.257,0.339 -0.342,0.387 -0.05,0.028 -0.153,0.123 -0.25,0.246 -0.069,0.089 -0.132,0.188 -0.16,0.279l-0.007 0.022c-0.089,0.282 -0.299,0.946 -0.437,1.183l0.001 0c-0.078,0.132 -0.069,0.232 -0.063,0.308 0.003,0.031 0.005,0.058 0.004,0.094 -0.002,0.068 -0.02,0.202 -0.049,0.325 -0.022,0.098 -0.052,0.194 -0.088,0.259 -0.007,0.013 -0.009,0.023 -0.006,0.031 0.005,0.016 0.02,0.031 0.04,0.042l-0.001 0c0.009,0.005 -0.001,-0.013 0.014,-0.019 0.058,-0.025 0.114,-0.068 0.136,-0.095 0.018,-0.021 0.058,-0.11 0.096,-0.208 0.039,-0.099 0.072,-0.197 0.075,-0.23 0.008,-0.108 0.082,-0.231 0.132,-0.316 0.012,-0.02 0.023,-0.037 0.027,-0.047l0.001 0c0.009,-0.021 0.024,-0.043 0.043,-0.064 0.037,-0.045 0.108,-0.112 0.176,-0.164 0.1,-0.078 0.214,-0.127 0.301,-0.087l0 0c0.014,0.007 0.028,0.015 0.04,0.026 0.106,0.089 0.063,0.432 0.056,0.486 -0.002,0.074 -0.01,0.493 -0.042,0.875 -0.036,0.444 -0.29,0.662 -0.452,0.802 -0.013,0.01 -0.025,0.02 -0.042,0.037l-0.001 0c-0.039,0.034 -0.022,0.062 -0.022,0.062l0.067 0.121 -0.112 0.082c0,0.001 -0.083,0.063 -0.156,0.157 -0.027,0.034 -0.046,0.062 -0.048,0.08 -0.001,0.009 0.01,0.026 0.038,0.056 0.027,0.028 0.047,0.027 0.057,0.024 0.037,-0.033 0.138,-0.114 0.256,-0.167 0.038,-0.016 0.138,-0.077 0.254,-0.15 0.197,-0.123 0.426,-0.275 0.481,-0.313 0.043,-0.03 0.261,-0.256 0.453,-0.47 0.139,-0.154 0.258,-0.294 0.271,-0.328 0.029,-0.074 0.114,-0.306 0.184,-0.509 0.041,-0.121 0.075,-0.228 0.085,-0.275 0.016,-0.08 0.085,-0.531 0.155,-1.03 0.052,-0.362 0.105,-0.753 0.14,-1.054 0.06,-0.503 0.004,-0.897 -0.031,-1.141 -0.012,-0.089 -0.022,-0.159 -0.025,-0.218 -0.006,-0.184 -0.109,-0.909 -0.109,-0.911l-0.001 -0.012c-0.001,-0.004 -0.11,-1.604 -0.2,-2.208 -0.046,-0.316 -0.088,-0.637 -0.115,-0.897 -0.026,-0.242 -0.039,-0.431 -0.031,-0.516 0.007,-0.084 -0.021,-0.339 -0.043,-0.541 -0.016,-0.139 -0.028,-0.254 -0.027,-0.3 0.001,-0.019 -0.018,-0.115 -0.042,-0.228 -0.037,-0.167 -0.084,-0.357 -0.103,-0.417 -0.009,-0.029 -0.029,-0.068 -0.049,-0.105 -0.051,-0.095 -0.098,-0.186 -0.076,-0.29 0.007,-0.03 0.001,-0.12 -0.013,-0.21 -0.01,-0.057 -0.02,-0.105 -0.028,-0.114 -0.024,-0.028 -0.06,-0.058 -0.104,-0.08 -0.034,-0.017 -0.074,-0.029 -0.115,-0.031 -0.26,-0.013 -0.269,-0.315 -0.274,-0.503l0 -0.006c-0.05,-0.013 -0.1,-0.036 -0.143,-0.105 -0.084,-0.132 -0.027,-0.198 0.047,-0.266 -0.025,-0.053 -0.063,-0.127 -0.11,-0.214 -0.062,-0.111 -0.138,-0.236 -0.222,-0.343 -0.162,-0.205 -0.23,-0.771 -0.271,-1.109 -0.012,-0.104 -0.022,-0.185 -0.028,-0.21l-0.01 -0.038c-0.065,-0.259 -0.362,-1.438 -0.396,-1.828 -0.032,-0.368 -0.232,-0.839 -0.347,-1.11l-0.007 -0.017c-0.038,-0.089 -0.12,-0.183 -0.215,-0.268 -0.148,-0.134 -0.319,-0.24 -0.416,-0.289 -0.138,-0.069 -0.253,-0.196 -0.353,-0.307 -0.049,-0.054 -0.095,-0.104 -0.129,-0.131 -0.092,-0.07 -0.552,-0.193 -0.554,-0.194l-0.127 -0.034 0.015 -0.194c-0.181,-0.071 -0.531,-0.206 -0.597,-0.219 -0.044,-0.009 0.032,0.056 0.032,0.056l-0.046 0.185 -1.638 -0.756 0.01 -0.111c0,-0.001 0.013,-0.14 0.007,-0.195 -0.001,-0.008 -0.034,-0.091 -0.077,-0.198 -0.07,-0.17 -0.166,-0.392 -0.212,-0.496 -0.026,0.001 -0.051,0.005 -0.068,0.012 -0.261,0.194 -0.335,-0.201 -0.335,-0.202l-0.003 -0.013 -0.001 -0.011c0,-0.002 -0.052,-0.767 0.033,-0.876 0.014,-0.018 0.038,-0.069 0.062,-0.129 0.029,-0.071 0.055,-0.15 0.068,-0.204 0.021,-0.09 0.062,-0.156 0.111,-0.208 0.045,-0.049 0.097,-0.081 0.146,-0.105 0.01,-0.005 0.047,-0.057 0.09,-0.124 0.047,-0.072 0.089,-0.152 0.105,-0.207 0.006,-0.022 0.018,-0.062 0.033,-0.111 0.061,-0.205 0.172,-0.574 0.182,-0.721 0.002,-0.019 -0.093,-0.011 -0.093,-0.011 -0.194,-0.171 -0.187,-0.117 -0.169,-0.396 0.004,-0.069 0.027,-0.285 0.055,-0.517 0.021,-0.167 0.046,-0.349 0.071,-0.496 0.043,-0.261 -0.052,-0.517 -0.125,-0.712l-0.023 -0.063c-0.027,-0.072 -0.085,-0.129 -0.15,-0.173 -0.075,-0.05 -0.162,-0.084 -0.232,-0.107 -0.213,-0.07 -0.247,-0.233 -0.274,-0.358 -0.004,-0.019 -0.008,-0.037 -0.01,-0.044l0 0c-0.01,-0.03 -0.038,-0.085 -0.073,-0.145 -0.036,-0.062 -0.078,-0.126 -0.113,-0.17 -0.04,-0.052 -0.115,-0.135 -0.183,-0.201 -0.039,-0.038 -0.069,-0.067 -0.072,-0.067 -0.07,-0.023 -0.158,-0.09 -0.242,-0.154 -0.034,-0.026 -0.067,-0.052 -0.091,-0.068 -0.017,-0.012 -0.206,0.012 -0.32,0.026 -0.055,0.007 -0.097,0.013 -0.119,0.013 -0.042,0 -0.077,-0.007 -0.123,-0.016 -0.043,-0.008 -0.101,-0.019 -0.193,-0.026 -0.11,-0.009 -0.24,0.015 -0.381,0.041 -0.068,0.012 -0.138,0.025 -0.193,0.033 -0.09,0.014 -0.15,0.034 -0.195,0.064 -0.046,0.029 -0.084,0.074 -0.129,0.136 -0.124,0.17 -0.214,0.237 -0.393,0.372 -0.05,0.037 -0.088,0.06 -0.123,0.081 -0.066,0.041 -0.111,0.067 -0.135,0.201 -0.042,0.236 -0.114,0.313 -0.209,0.416 -0.029,0.031 -0.06,0.065 -0.095,0.113 -0.054,0.074 -0.097,0.172 -0.131,0.294 -0.037,0.131 -0.065,0.289 -0.089,0.476 -0.042,0.337 0.072,0.599 0.154,0.789l0.007 0.015c0.124,0.287 0.001,0.472 0.001,0.472l-0.166 0.083 0.047 0.3 0.003 0.032c0.007,0.083 0.052,0.258 0.109,0.423 0.047,0.134 0.098,0.256 0.139,0.306l0.001 0c0.058,0.072 0.15,0.215 0.237,0.359 0.097,0.161 0.189,0.329 0.221,0.406 0.067,0.16 0.082,1.095 0.082,1.097l0.001 0.11 -0.103 0.04c0,0 -0.065,0.025 -0.211,0.147 -0.123,0.102 -0.326,1.073 -0.327,1.076l-0.021 0.102 -0.102 0.021c-0.001,0 -0.191,0.039 -0.247,0.059 -0.054,0.02 -0.837,0.481 -0.839,0.483l-0.062 0.036 -0.068 -0.023c0,0 -0.082,-0.027 -0.157,-0.05 -0.021,-0.007 -0.082,-0.014 -0.125,-0.018l-0.533 0.294 0.055 0.247 -0.102 0.058c-0.002,0.001 -0.515,0.29 -0.704,0.4l0 0.001c-0.079,0.046 -0.143,0.153 -0.2,0.248 -0.034,0.057 -0.066,0.111 -0.1,0.155 -0.033,0.042 -0.066,0.074 -0.103,0.109 -0.071,0.069 -0.16,0.155 -0.297,0.42 -0.094,0.182 -0.171,0.415 -0.225,0.658 -0.058,0.259 -0.089,0.53 -0.089,0.764 0,0.483 -0.252,1.716 -0.253,1.719l-0.001 0.007c-0.001,0.001 -0.117,0.461 -0.127,0.667 -0.009,0.2 -0.187,0.528 -0.319,0.773 -0.047,0.086 -0.088,0.161 -0.11,0.209 -0.04,0.089 -0.073,0.17 -0.088,0.233 -0.007,0.028 -0.025,0.028 -0.019,0.035l-0.001 0c0.047,0.058 0.088,0.163 0.108,0.265 0.019,0.096 0.021,0.199 -0.005,0.276l0 0c-0.045,0.135 -0.177,0.187 -0.3,0.236 -0.044,0.017 -0.086,0.033 -0.1,0.044 -0.004,0.003 -0.021,0.074 -0.042,0.169 -0.035,0.155 -0.058,0.344 -0.061,0.46 -0.008,0.227 -0.104,0.52 -0.219,0.87l-0.031 0.095c-0.1,0.304 0.094,0.57 0.095,0.57l0.037 0.051 -0.008 0.062c0,0.001 -0.038,0.298 -0.015,0.413 0.025,0.128 -0.039,0.457 -0.083,0.684 -0.016,0.084 -0.03,0.153 -0.033,0.181l0 0.001c-0.007,0.062 -0.023,0.483 -0.04,0.944 -0.014,0.395 -0.03,0.819 -0.042,1.072 -0.016,0.314 -0.037,0.677 -0.064,1.048 -0.023,0.313 -0.05,0.642 -0.082,0.966 -0.044,0.436 0.06,0.979 0.155,1.473 0.05,0.258 0.097,0.504 0.121,0.723 0.025,0.226 0.063,0.427 0.104,0.597 0.067,0.281 0.137,0.463 0.161,0.52 0.038,0.087 0.231,0.469 0.457,0.913l0.037 0.074c0.162,0.319 0.488,0.485 0.784,0.637 0.105,0.053 0.206,0.105 0.291,0.157 0.151,0.09 0.229,0.118 0.27,0.115 0.001,-0.001 0.133,-0.065 0.161,-0.198 0.065,-0.085 -0.091,-0.303 -0.148,-0.34 -0.001,-0.004 -0.406,-0.3 -0.439,-0.325l0 0c-0.036,-0.028 -0.072,-0.06 -0.106,-0.092l-0.027 -0.026 -0.012 -0.035c-0.059,-0.165 -0.097,-0.334 -0.139,-0.526 -0.04,-0.188 -0.063,-0.375 -0.073,-0.534 -0.014,-0.219 0.011,-0.399 0.05,-0.529 0.025,-0.082 0.056,-0.11 0.087,-0.157 0.052,-0.077 0.061,-0.119 0.129,-0.124 0.023,-0.001 0.045,0.002 0.065,0.008 0.142,0.042 0.23,0.301 0.421,0.866l0.058 0.169c0.038,0.112 0.079,0.188 0.119,0.239 0.034,0.042 0.065,0.061 0.09,0.066l0.072 0.013 -0.207 -1.174c-0.033,-0.194 -0.215,-0.601 -0.419,-0.993 -0.217,-0.419 -0.452,-0.809 -0.545,-0.881 -0.247,-0.191 -0.212,-0.413 -0.164,-0.716 0.009,-0.055 0.018,-0.113 0.027,-0.188 0.025,-0.214 0.082,-0.576 0.173,-0.929 0.063,-0.25 0.145,-0.499 0.244,-0.695 0.107,-0.211 0.238,-0.49 0.359,-0.76 0.138,-0.308 0.265,-0.605 0.334,-0.783 0.08,-0.206 0.108,-0.422 0.131,-0.597 0.013,-0.101 0.025,-0.191 0.043,-0.263 0.048,-0.192 0.15,-0.671 0.151,-0.672l0.017 -0.082 0.216 -0.09 0.058 0.021 0.186 0.293c-0.004,0.023 0.04,0.129 0.082,0.229 0.01,0.023 0.019,0.046 0.033,0.08 0.041,0.102 0.04,0.214 0.017,0.324 -0.021,0.097 -0.058,0.192 -0.097,0.274l0 0c-0.008,0.017 0.036,0.001 0.064,0.03 0.062,0.063 0.145,0.124 0.194,0.158l0.091 0.063 -0.029 0.107c-0.044,0.166 -0.106,0.417 -0.148,0.618 -0.029,0.135 -0.048,0.241 -0.045,0.269 0.008,0.089 0.002,0.309 -0.016,0.516 -0.015,0.173 -0.038,0.344 -0.066,0.438 -0.03,0.095 -0.085,0.321 -0.142,0.593 -0.047,0.222 -0.094,0.471 -0.13,0.699 -0.05,0.315 -0.142,0.934 -0.207,1.518 -0.041,0.373 -0.07,0.725 -0.068,0.961 0,0.062 -0.001,0.138 -0.004,0.224 -0.003,0.091 -0.013,0.188 -0.018,0.292l0.202 1.267c-0.058,0.11 -0.18,0.104 -0.269,0.156l0.003 -0.014c-0.009,0.211 -0.035,0.423 -0.02,0.626 0.007,0.097 0.079,0.135 0.101,0.329 0.011,0.193 -0.12,0.346 -0.12,0.346 0.005,0.22 0.037,0.389 0.061,0.535 0.078,0.484 0.232,1.419 0.364,2.203 0.094,0.554 0.174,1.016 0.202,1.152 0.042,0.202 0.114,0.581 0.162,0.934 0.033,0.238 0.054,0.467 0.049,0.626 -0.005,0.12 -0.014,0.248 -0.024,0.381 -0.024,0.324 -0.051,0.683 -0.011,0.812 0.039,0.126 0.058,0.438 0.067,0.766 0.01,0.338 0.01,0.658 0.01,0.831 0,0.072 -0.005,0.263 -0.01,0.489 -0.013,0.557 -0.031,1.35 0.002,1.457 0.045,0.144 0.13,0.746 0.184,1.127 0.02,0.14 0.036,0.25 0.043,0.291 0.005,0.035 0.036,0.112 0.074,0.206 0.102,0.256 0.248,0.621 0.203,0.922 -0.011,0.072 -0.031,0.181 -0.053,0.303 -0.072,0.395 -0.17,0.935 -0.103,1.183 0.041,0.154 0.118,0.343 0.2,0.519 0.101,0.216 0.209,0.409 0.272,0.493 0.057,0.077 0.099,0.238 0.129,0.42 0.045,0.278 0.07,0.621 0.079,0.749l0.008 0.127 -0.123 0.035c-0.071,0.02 -0.145,0.044 -0.207,0.068 -0.058,0.024 -0.109,0.049 -0.143,0.074 -0.164,0.123 -0.317,0.277 -0.4,0.36l-0.025 0.026c-0.016,0.016 -0.012,0.037 -0.012,0.037 0.032,0.112 -0.267,0.09 -0.274,0.183 -0.006,0.072 -0.047,0.155 -0.102,0.226 -0.052,0.069 -0.122,0.133 -0.186,0.165 -0.016,0.008 -0.043,0.043 -0.069,0.086 -0.025,0.04 -0.044,0.079 -0.044,0.098 0,0.156 -0.095,0.194 -0.197,0.235 -0.016,0.007 -0.02,-0.025 -0.026,-0.006 -0.047,0.141 -1.018,1.105 -1.021,1.108l-0.014 0.013 -0.016 0.01c-0.001,0 -0.136,0.082 -0.145,0.22 -0.012,0.196 -0.008,0.382 -0.007,0.416 0,0.001 0.019,0.36 0.53,0.344 0.347,-0.011 0.779,-0.047 1.158,-0.099 0.324,-0.045 0.605,-0.1 0.751,-0.16 0.231,-0.094 0.439,-0.105 0.626,-0.114l0.001 0c0.104,-0.006 0.201,-0.011 0.28,-0.031 0.23,-0.059 1.637,-0.608 1.641,-0.61l0.014 -0.005 0.015 -0.003c0.001,0 0.227,-0.043 0.217,-0.186 -0.016,-0.217 -0.012,-0.432 -0.009,-0.528l-0.082 -0.126 -0.005 -0.034c0,-0.003 -0.126,-0.92 -0.189,-1.013 -0.017,-0.026 -0.04,-0.045 -0.061,-0.063l-0.001 0.001c-0.084,-0.069 -0.152,-0.125 -0.152,-0.31 0,-0.122 -0.006,-0.293 -0.01,-0.392 -0.01,-0.006 -0.022,-0.013 -0.036,-0.02l-0.044 -0.247c0.018,-0.02 0.041,-0.052 0.058,-0.1 0.013,-0.036 0.022,-0.082 0.022,-0.14 0,-0.059 -0.002,-0.106 -0.004,-0.156 -0.012,-0.284 -0.027,-0.642 0.181,-0.967 0.107,-0.167 0.212,-0.441 0.276,-0.715 0.058,-0.243 0.083,-0.48 0.049,-0.632 -0.08,-0.359 -0.187,-0.642 -0.188,-0.642l-0.023 -0.061 0.027 -0.06c0.001,-0.002 0.427,-0.96 0.388,-1.559 -0.014,-0.218 -0.029,-0.617 -0.045,-1.048 -0.029,-0.773 -0.062,-1.654 -0.102,-1.798 -0.042,-0.153 -0.131,-0.513 -0.195,-0.846 -0.042,-0.224 -0.074,-0.439 -0.074,-0.579 0,-0.171 0.074,-0.788 0.149,-1.416 0.077,-0.644 0.155,-1.301 0.155,-1.476 0,-0.18 0.042,-0.509 0.103,-0.87 0.066,-0.393 0.154,-0.826 0.235,-1.148 0.062,-0.25 0.154,-0.72 0.242,-1.205 0.128,-0.701 0.25,-1.436 0.266,-1.583 0.009,-0.086 0.044,-0.28 0.085,-0.5 0.046,-0.243 0.092,-0.477 0.127,-0.651l0.224 -0.295 0.273 0.489 0.009 0.034c0.001,0.006 0.577,2.128 0.68,2.328 0.118,0.23 0.681,2.097 0.682,2.102l0.001 0.003c0,0.003 0.223,0.796 0.3,1.197 0.029,0.149 0.09,0.409 0.158,0.683 0.11,0.446 0.235,0.926 0.268,1.048 0.052,0.188 0.352,1.262 0.353,1.265l0.001 0.003c0.001,0.003 0.268,1.033 0.315,1.173l0 0c0.03,0.09 0.099,0.461 0.154,0.826 0.043,0.286 0.079,0.577 0.082,0.736 0.003,0.142 0.038,0.441 0.081,0.756 0.055,0.402 0.124,0.827 0.158,0.985 0.025,0.111 0.086,0.287 0.148,0.468 0.098,0.282 0.2,0.576 0.195,0.719 -0.003,0.062 0.068,0.324 0.155,0.616 0.124,0.412 0.276,0.865 0.307,0.917 0.043,0.072 0.083,0.199 0.1,0.319 0.016,0.113 0.013,0.229 -0.022,0.309 -0.002,0.005 0.022,0.06 0.05,0.121 0.038,0.084 0.093,0.174 0.12,0.217l-0.001 0.001c0.059,0.095 0.182,0.508 0.249,0.736l0.031 0.103c0.038,0.127 0.053,0.513 0.059,0.735 0.052,0.004 0.097,0.019 0.136,0.053 0.102,0.087 0.101,0.203 -0.057,0.385zm-0.516 0.137c0.053,-0.075 0.123,-0.162 0.195,-0.248l-0.069 0.005 -0.002 -0.169c0,-0.002 -0.007,-0.669 -0.048,-0.806l-0.032 -0.105c-0.064,-0.215 -0.18,-0.604 -0.215,-0.66l0 0c-0.029,-0.047 -0.088,-0.144 -0.138,-0.252 -0.06,-0.131 -0.098,-0.273 -0.052,-0.379 0.01,-0.022 0.007,-0.077 -0.002,-0.138 -0.011,-0.083 -0.034,-0.163 -0.058,-0.202 -0.041,-0.069 -0.209,-0.558 -0.338,-0.989 -0.095,-0.318 -0.172,-0.616 -0.168,-0.717 0.003,-0.085 -0.089,-0.351 -0.177,-0.605 -0.068,-0.194 -0.133,-0.383 -0.159,-0.504 -0.035,-0.16 -0.106,-0.596 -0.163,-1.01 -0.044,-0.323 -0.079,-0.635 -0.083,-0.792 -0.002,-0.139 -0.037,-0.416 -0.079,-0.695 -0.053,-0.353 -0.116,-0.699 -0.141,-0.773 -0.049,-0.146 -0.305,-1.129 -0.32,-1.19 -0.001,-0.003 -0.295,-1.055 -0.354,-1.267 -0.034,-0.126 -0.161,-0.612 -0.27,-1.057 -0.069,-0.28 -0.132,-0.546 -0.162,-0.699 -0.072,-0.375 -0.278,-1.115 -0.293,-1.167l0 0c-0.002,-0.005 -0.557,-1.85 -0.66,-2.049 -0.101,-0.195 -0.541,-1.792 -0.669,-2.261 -0.018,0.095 -0.036,0.188 -0.052,0.269 -0.04,0.212 -0.073,0.398 -0.081,0.477 -0.017,0.147 -0.14,0.892 -0.27,1.604 -0.09,0.497 -0.184,0.977 -0.246,1.226 -0.079,0.316 -0.165,0.74 -0.23,1.123 -0.057,0.344 -0.097,0.654 -0.097,0.818 0,0.191 -0.08,0.859 -0.158,1.513 -0.074,0.618 -0.147,1.224 -0.147,1.379 0,0.121 0.029,0.315 0.068,0.521 0.062,0.325 0.148,0.672 0.189,0.82 0.05,0.179 0.083,1.08 0.113,1.871 0.015,0.421 0.03,0.809 0.045,1.04 0.037,0.578 -0.294,1.417 -0.39,1.646 0.038,0.106 0.115,0.342 0.179,0.626 0.045,0.203 0.018,0.49 -0.049,0.773 -0.073,0.306 -0.193,0.618 -0.318,0.814 -0.155,0.241 -0.142,0.543 -0.133,0.783 0.003,0.066 0.006,0.128 0.006,0.169 0,0.095 -0.017,0.176 -0.04,0.244 -0.007,0.02 -0.015,0.038 -0.022,0.055l0.055 0.046 0.003 0.07c0,0.001 0.014,0.318 0.014,0.484 0,0.035 0.016,0.048 0.036,0.064l0 0.001c0.038,0.031 0.081,0.066 0.124,0.131 0.092,0.138 0.21,0.934 0.235,1.11l0.099 0.152 -0.003 0.051c0,0 -0.013,0.265 0.007,0.542 0.027,0.376 -0.366,0.493 -0.457,0.515 -0.127,0.05 -1.427,0.555 -1.668,0.617 -0.111,0.029 -0.223,0.035 -0.342,0.041 -0.162,0.008 -0.341,0.017 -0.524,0.092 -0.17,0.069 -0.478,0.131 -0.828,0.179 -0.388,0.053 -0.832,0.09 -1.192,0.102 -0.817,0.025 -0.854,-0.637 -0.854,-0.639l0 -0.006c0,0 -0.007,-0.224 0.007,-0.45 0.016,-0.255 0.214,-0.414 0.278,-0.459 0.101,-0.1 0.913,-0.909 0.934,-0.972 0.04,-0.121 0.127,-0.156 0.208,-0.188l0.003 0.006c0.012,-0.068 0.045,-0.145 0.087,-0.213 0.054,-0.086 0.128,-0.167 0.196,-0.202 0.021,-0.01 0.05,-0.039 0.077,-0.074 0.021,-0.027 0.036,-0.051 0.037,-0.06 0.01,-0.128 0.169,-0.206 0.285,-0.247 0.012,-0.054 0.039,-0.116 0.093,-0.17l0.025 -0.026c0.088,-0.088 0.25,-0.252 0.435,-0.39 0.057,-0.043 0.133,-0.081 0.216,-0.114 0.037,-0.015 0.075,-0.029 0.113,-0.042 -0.013,-0.158 -0.034,-0.395 -0.067,-0.593 -0.022,-0.139 -0.047,-0.252 -0.069,-0.282 -0.074,-0.098 -0.196,-0.314 -0.305,-0.549 -0.09,-0.192 -0.174,-0.4 -0.22,-0.57 -0.085,-0.315 0.021,-0.896 0.098,-1.32 0.02,-0.107 0.037,-0.202 0.05,-0.294 0.033,-0.219 -0.094,-0.537 -0.183,-0.759 -0.045,-0.113 -0.082,-0.205 -0.093,-0.271 -0.008,-0.049 -0.023,-0.158 -0.043,-0.298 -0.053,-0.373 -0.137,-0.961 -0.173,-1.079 -0.048,-0.155 -0.029,-0.978 -0.016,-1.556 0.005,-0.196 0.008,-0.361 0.008,-0.483 0,-0.187 0,-0.531 -0.008,-0.823 -0.008,-0.302 -0.024,-0.585 -0.053,-0.68 -0.059,-0.187 -0.03,-0.577 -0.003,-0.93 0.01,-0.139 0.02,-0.273 0.024,-0.368 0.005,-0.139 -0.016,-0.349 -0.046,-0.573 -0.047,-0.343 -0.118,-0.714 -0.159,-0.911 -0.03,-0.143 -0.11,-0.609 -0.204,-1.165 -0.127,-0.749 -0.282,-1.694 -0.364,-2.205 -0.016,-0.098 -0.028,-0.212 -0.036,-0.34l-0.003 -0.1c-0.104,0.01 -0.22,-0.001 -0.437,-0.132 -0.088,-0.053 -0.178,-0.099 -0.271,-0.147 -0.341,-0.174 -0.741,-0.291 -0.949,-0.701l-0.038 -0.074c-0.228,-0.449 -0.424,-0.835 -0.465,-0.932 -0.028,-0.065 -0.107,-0.27 -0.179,-0.571 -0.042,-0.178 -0.083,-0.392 -0.109,-0.637 -0.023,-0.203 -0.069,-0.444 -0.118,-0.697 -0.099,-0.515 -0.207,-1.08 -0.159,-1.563 0.031,-0.308 0.058,-0.636 0.081,-0.957 0.028,-0.382 0.049,-0.74 0.064,-1.041 0.012,-0.265 0.028,-0.681 0.042,-1.069 0.018,-0.472 0.033,-0.904 0.041,-0.969 0.005,-0.04 0.019,-0.114 0.037,-0.204 0.039,-0.202 0.096,-0.495 0.083,-0.563 -0.025,-0.122 -0.005,-0.352 0.006,-0.458 -0.073,-0.125 -0.221,-0.443 -0.105,-0.798l0.031 -0.095c0.108,-0.328 0.198,-0.602 0.204,-0.781 0.004,-0.133 0.03,-0.346 0.068,-0.519 0.035,-0.16 0.089,-0.299 0.16,-0.353 0.051,-0.039 0.112,-0.063 0.175,-0.087 0.057,-0.023 0.115,-0.035 0.117,-0.041l0 -0.001c0.007,-0.021 0.003,-0.066 -0.007,-0.115 -0.011,-0.057 -0.027,-0.107 -0.042,-0.126l-0.001 0c-0.065,-0.079 -0.071,-0.186 -0.041,-0.309 0.021,-0.087 0.06,-0.186 0.107,-0.288 0.026,-0.057 0.069,-0.137 0.119,-0.229 0.118,-0.218 0.276,-0.511 0.282,-0.636 0.011,-0.243 0.135,-0.729 0.136,-0.731 0.019,-0.096 0.244,-1.212 0.244,-1.649 0,-0.252 0.034,-0.547 0.098,-0.832 0.059,-0.269 0.145,-0.529 0.252,-0.735 0.161,-0.312 0.27,-0.417 0.359,-0.503 0.026,-0.025 0.05,-0.048 0.071,-0.076 0.027,-0.034 0.052,-0.077 0.08,-0.122 0.077,-0.129 0.163,-0.273 0.311,-0.36l0.001 0c0.105,-0.062 0.436,-0.249 0.606,-0.344l-0.056 -0.251 0.823 -0.454 0.049 0.005c0,0 0.165,0.01 0.24,0.033 0.018,0.006 0.058,0.019 0.094,0.031 0.191,-0.112 0.764,-0.447 0.829,-0.471 0.041,-0.015 0.124,-0.035 0.191,-0.05 0.062,-0.273 0.243,-1.013 0.413,-1.154 0.08,-0.067 0.147,-0.113 0.197,-0.144 -0.005,-0.229 -0.02,-0.802 -0.055,-0.884 -0.027,-0.063 -0.111,-0.215 -0.202,-0.366 -0.078,-0.131 -0.16,-0.258 -0.212,-0.322l0.001 -0.001c-0.066,-0.081 -0.136,-0.238 -0.193,-0.401 -0.065,-0.189 -0.118,-0.397 -0.126,-0.502l-0.003 -0.032c-0.019,-0.235 -0.052,-0.645 0.172,-0.677 -0.006,-0.021 -0.015,-0.047 -0.028,-0.078l-0.007 -0.015c-0.097,-0.223 -0.231,-0.533 -0.178,-0.952 0.025,-0.201 0.056,-0.375 0.098,-0.524 0.045,-0.158 0.103,-0.289 0.18,-0.395 0.042,-0.057 0.082,-0.101 0.119,-0.14 0.059,-0.064 0.104,-0.113 0.13,-0.258 0.05,-0.275 0.143,-0.332 0.283,-0.416 0.031,-0.019 0.066,-0.04 0.096,-0.063 0.153,-0.114 0.229,-0.172 0.327,-0.305 0.066,-0.091 0.127,-0.161 0.211,-0.216 0.085,-0.055 0.184,-0.09 0.322,-0.111 0.075,-0.011 0.13,-0.021 0.183,-0.031 0.164,-0.03 0.314,-0.058 0.461,-0.046 0.11,0.008 0.178,0.021 0.23,0.031 0.027,0.005 0.048,0.009 0.063,0.009 0.011,0 0.041,-0.003 0.079,-0.008 0.16,-0.021 0.423,-0.054 0.54,0.027 0.035,0.024 0.069,0.05 0.103,0.076 0.062,0.048 0.127,0.097 0.146,0.103 0.053,0.017 0.126,0.074 0.197,0.143 0.079,0.077 0.165,0.173 0.212,0.232 0.042,0.054 0.093,0.132 0.137,0.207 0.043,0.075 0.081,0.151 0.099,0.204 0.009,0.028 0.014,0.052 0.02,0.078 0.01,0.048 0.023,0.11 0.062,0.123 0.09,0.029 0.204,0.074 0.31,0.145 0.115,0.077 0.218,0.183 0.271,0.328l0.022 0.061c0.086,0.229 0.198,0.531 0.141,0.874 -0.022,0.134 -0.046,0.312 -0.068,0.483 -0.029,0.231 -0.051,0.438 -0.055,0.497 -0.001,0.025 -0.002,0.05 -0.002,0.074 0.128,0.029 0.281,0.109 0.265,0.335 -0.012,0.183 -0.13,0.574 -0.195,0.79 -0.012,0.043 -0.023,0.078 -0.032,0.108 -0.024,0.085 -0.081,0.196 -0.142,0.291 -0.07,0.108 -0.155,0.205 -0.216,0.235 -0.021,0.011 -0.042,0.024 -0.058,0.041 -0.013,0.014 -0.025,0.034 -0.031,0.062 -0.016,0.068 -0.049,0.164 -0.083,0.25 -0.035,0.085 -0.074,0.164 -0.106,0.205 -0.009,0.012 0.017,0.421 0.028,0.59 0.033,-0.006 0.068,-0.01 0.1,-0.01 0.094,-0.001 0.187,0.027 0.238,0.094 0.01,0.013 0.018,0.026 0.024,0.041l0 0c0.019,0.042 0.145,0.332 0.238,0.558 0.054,0.132 0.096,0.245 0.1,0.286 0.004,0.037 0.003,0.092 0,0.142l1.123 0.519c0.053,-0.077 0.136,-0.144 0.259,-0.12 0.117,0.024 0.759,0.277 0.76,0.278l0.109 0.043 -0.013 0.167c0.164,0.049 0.439,0.138 0.537,0.213 0.055,0.042 0.11,0.103 0.171,0.17 0.082,0.091 0.175,0.194 0.26,0.237 0.116,0.057 0.317,0.183 0.487,0.335 0.125,0.113 0.236,0.243 0.294,0.38l0.007 0.017c0.123,0.289 0.336,0.79 0.372,1.208 0.032,0.365 0.324,1.523 0.388,1.777l0.009 0.038c0.011,0.046 0.022,0.135 0.036,0.25 0.037,0.304 0.098,0.815 0.205,0.95 0.096,0.122 0.182,0.263 0.25,0.387 0.065,0.117 0.116,0.225 0.142,0.281l0.001 0c0.039,0.085 0.035,0.146 0.01,0.196 0.04,0.025 0.071,0.068 0.085,0.149 0.005,0.027 0.006,0.064 0.007,0.108 0.002,0.076 -0.061,0.194 -0.028,0.196 0.089,0.004 0.171,0.029 0.242,0.065 0.085,0.042 0.155,0.1 0.203,0.155 0.049,0.058 0.082,0.163 0.1,0.27 0.02,0.125 0.024,0.267 0.011,0.327 -0.002,0.008 0.023,0.034 0.046,0.076 0.026,0.05 0.054,0.102 0.071,0.159 0.022,0.068 0.073,0.271 0.11,0.444 0.029,0.134 0.052,0.257 0.049,0.308 0,0.019 0.011,0.125 0.025,0.252l0 0.001c0.024,0.217 0.054,0.491 0.045,0.602 -0.006,0.067 0.006,0.235 0.029,0.457 0.026,0.248 0.068,0.564 0.115,0.883 0.088,0.596 0.195,2.135 0.201,2.229 0.011,0.073 0.105,0.744 0.111,0.936 0.002,0.039 0.011,0.103 0.023,0.185 0.037,0.261 0.097,0.681 0.032,1.223 -0.034,0.289 -0.088,0.687 -0.141,1.061 -0.073,0.51 -0.142,0.969 -0.158,1.048 -0.012,0.06 -0.051,0.181 -0.096,0.315 -0.069,0.201 -0.158,0.441 -0.189,0.521 -0.028,0.073 -0.171,0.247 -0.331,0.425 -0.205,0.229 -0.449,0.479 -0.508,0.52 -0.057,0.039 -0.293,0.195 -0.492,0.32 -0.125,0.078 -0.239,0.146 -0.296,0.171 -0.098,0.044 -0.184,0.124 -0.184,0.124l-0.009 0.009 -0.013 0.008c0,0 -0.244,0.162 -0.463,-0.069 -0.1,-0.105 -0.133,-0.204 -0.123,-0.304 0.008,-0.092 0.053,-0.168 0.113,-0.245 0.044,-0.056 0.092,-0.106 0.132,-0.143 -0.011,-0.088 0.006,-0.209 0.129,-0.32l0 0c0.009,-0.009 0.028,-0.025 0.048,-0.042 0.124,-0.106 0.317,-0.272 0.342,-0.586 0.035,-0.424 0.042,-0.863 0.042,-0.865l0 -0.01 0.001 -0.008c0,-0.001 0.013,-0.031 0.027,-0.069 -0.018,0.017 -0.033,0.033 -0.044,0.045 0,0.001 0,0 0,0l0 0c-0.009,0.017 -0.023,0.041 -0.04,0.069 -0.035,0.058 -0.086,0.143 -0.088,0.177 -0.005,0.064 -0.047,0.198 -0.096,0.323 -0.049,0.124 -0.108,0.249 -0.149,0.297 -0.046,0.054 -0.151,0.137 -0.254,0.181 -0.099,0.042 -0.204,0.054 -0.294,0.003l-0.001 0c-0.084,-0.048 -0.153,-0.126 -0.183,-0.219 -0.028,-0.088 -0.024,-0.185 0.03,-0.283 0.02,-0.035 0.04,-0.103 0.057,-0.176 0.024,-0.105 0.039,-0.213 0.041,-0.264 0,-0.01 -0.002,-0.033 -0.004,-0.058 -0.01,-0.119 -0.023,-0.276 0.105,-0.494l0 0c0.118,-0.201 0.321,-0.845 0.407,-1.118l0.007 -0.023c0.042,-0.131 0.124,-0.264 0.214,-0.378 0.122,-0.155 0.267,-0.284 0.344,-0.328 0.05,-0.028 0.149,-0.113 0.209,-0.244 0.038,-0.081 0.059,-0.178 0.039,-0.288 -0.036,-0.193 -0.133,-0.536 -0.247,-0.867 -0.096,-0.281 -0.202,-0.549 -0.289,-0.702 -0.099,-0.175 -0.247,-0.436 -0.384,-0.688 -0.137,-0.251 -0.26,-0.485 -0.304,-0.6 -0.025,-0.065 -0.075,-0.183 -0.134,-0.323 -0.143,-0.339 -0.335,-0.794 -0.353,-0.915 -0.014,-0.098 -0.009,-0.21 -0.003,-0.286 -0.081,-0.071 -0.208,-0.2 -0.282,-0.363 -0.029,-0.065 -0.082,-0.179 -0.143,-0.306 -0.03,0.092 -0.102,0.238 -0.146,0.323 0.053,0.125 0.146,0.381 0.128,0.588 -0.007,0.087 -0.027,0.206 -0.046,0.328 -0.031,0.19 -0.063,0.389 -0.048,0.453 0.023,0.093 -0.008,0.229 -0.059,0.368 -0.064,0.175 -0.166,0.371 -0.223,0.464 -0.01,0.016 -0.023,0.031 -0.039,0.046 0.035,0.089 0.048,0.165 0.048,0.165l0.002 0.01 0.076 1.144c0.012,0.092 0.115,0.872 0.132,0.909 0.019,0.044 0.041,0.179 0.061,0.339 0.025,0.206 0.051,0.466 0.063,0.612 0.02,0.238 0.231,1.093 0.231,1.096l0.002 0.005c0,0.004 0.319,1.495 0.461,2.048 0.15,0.584 0.219,2.076 0.22,2.08l0 0.01c0,0.007 -0.042,2.402 -0.029,2.519 0.006,0.054 0.008,0.222 0.007,0.421 -0.002,0.292 -0.009,0.653 -0.013,0.811 -0.003,0.103 0.017,0.319 0.042,0.54 0.033,0.295 0.075,0.586 0.087,0.62 0.018,0.049 0.038,0.169 0.059,0.296 0.021,0.131 0.044,0.271 0.056,0.299 0.033,0.079 0.034,0.302 0.034,0.508 0,0.113 0,0.221 0.006,0.288 0.003,0.044 0.004,0.104 0.004,0.168 0.001,0.141 0.002,0.309 0.053,0.388 0.062,0.094 0.116,0.242 0.157,0.417 0.039,0.17 0.069,0.37 0.083,0.578 0.011,0.148 0.043,0.316 0.082,0.472 0.058,0.235 0.129,0.438 0.159,0.502 0.036,0.076 0.101,0.266 0.153,0.476 0.038,0.153 0.071,0.319 0.084,0.464l0.007 0.085c0.038,0.453 0.156,1.841 0.213,2.216 0.033,0.217 0,0.525 -0.033,0.835 -0.033,0.307 -0.066,0.615 -0.031,0.799 0.039,0.206 0.049,0.477 0.039,0.725 -0.012,0.273 -0.051,0.525 -0.106,0.643 -0.059,0.128 -0.086,0.56 -0.104,0.853 -0.005,0.084 -0.01,0.159 -0.013,0.2 -0.011,0.135 -0.035,0.269 -0.062,0.389 -0.027,0.119 -0.055,0.218 -0.076,0.288 -0.012,0.039 0.027,0.089 0.055,0.126 0.039,0.051 0.072,0.094 0.077,0.162 0.005,0.057 -0.006,0.104 -0.04,0.141 0.056,0.051 0.115,0.128 0.171,0.216 0.081,0.125 0.161,0.277 0.217,0.398l0 0c0.051,0.11 0.116,0.334 0.174,0.575 0.061,0.255 0.116,0.53 0.137,0.711 0.015,0.119 0.057,0.244 0.106,0.354 0.065,0.145 0.086,0.246 0.093,0.247 0.083,0.015 0.198,0.117 0.198,0.117l0.054 0.049 -0.002 0.073c0,0 -0.005,0.216 -0.005,0.535 0,0.185 -0.06,0.345 -0.143,0.476 -0.079,0.127 -0.177,0.225 -0.258,0.295 -0.099,0.084 -0.384,0.163 -0.744,0.209 -0.308,0.04 -0.68,0.06 -1.04,0.043 -0.64,-0.03 -0.948,-0.229 -1.144,-0.355 -0.042,-0.027 -0.079,-0.051 -0.103,-0.063l0 0c-0.24,-0.119 -0.212,-0.304 -0.186,-0.469l-0.001 0c0.004,-0.028 0.009,-0.056 0.009,-0.074 0,-0.031 -0.045,-0.113 -0.089,-0.195 -0.048,-0.086 -0.094,-0.172 -0.114,-0.251 -0.035,-0.139 -0.007,-0.331 0.013,-0.474 0.004,-0.031 0.008,-0.06 0.011,-0.086 0.013,-0.118 0.084,-0.312 0.111,-0.382 0.002,-0.068 0.009,-0.254 0.02,-0.48 0.01,-0.216 0.055,-0.457 0.084,-0.609 0.011,-0.059 0.019,-0.103 0.02,-0.118 0.006,-0.065 0.056,-0.157 0.128,-0.257zm-0.188 -26.355c0,0.002 -0.01,0.019 -0.005,0.011l0.006 -0.01 -0.001 -0.001zm2.455 5.519c0.001,-0.001 0.001,-0.002 0,0zm-0.001 0.005l-0.001 0.002 0 0 0.001 -0.002zm-12.564 2.573c0.014,0.012 0.028,0.024 0.041,0.037 0.004,-0.141 0.009,-0.284 0.015,-0.427 -0.049,-0.029 -0.098,-0.07 -0.144,-0.128 -0.063,-0.077 -0.122,-0.186 -0.173,-0.336l-0.057 -0.168c-0.086,-0.251 -0.136,-0.425 -0.167,-0.532 -0.024,0.098 -0.038,0.227 -0.029,0.384 0.009,0.141 0.036,0.313 0.073,0.487 0.036,0.166 0.081,0.332 0.131,0.477 0.018,0.017 0.035,0.031 0.05,0.043l0.001 0c0.014,0.011 0.026,0.019 0.032,0.021 0.072,0.029 0.16,0.085 0.227,0.142zm0.341 18.803l0.002 -0.014 -0.002 -0.006c0,0.001 0,0.01 0,0.02zm10.323 -0.828c-0.003,-0.003 -0.006,-0.005 -0.009,-0.006 0.02,0.016 0.031,0.024 0.009,0.006zm-9.718 -25.832c-0.048,-0.037 -0.101,-0.082 -0.148,-0.13 -0.114,-0.116 -0.189,-0.253 -0.125,-0.388l0 -0.001c0.03,-0.063 0.059,-0.135 0.073,-0.202 0.011,-0.054 0.014,-0.105 -0.001,-0.141 -0.006,-0.016 -0.019,-0.046 -0.031,-0.077 -0.012,-0.026 -0.023,-0.053 -0.033,-0.08 -0.028,0.126 -0.058,0.257 -0.078,0.337 -0.015,0.06 -0.025,0.138 -0.037,0.226 -0.025,0.193 -0.056,0.43 -0.149,0.671 -0.071,0.183 -0.2,0.486 -0.34,0.797 -0.125,0.278 -0.258,0.563 -0.365,0.774 -0.088,0.172 -0.161,0.399 -0.22,0.631 -0.087,0.34 -0.141,0.684 -0.165,0.887 -0.008,0.062 -0.019,0.134 -0.03,0.2 -0.031,0.197 -0.053,0.341 0.045,0.418 0.129,0.1 0.398,0.533 0.634,0.986 0.061,0.118 0.12,0.238 0.175,0.354 0.012,-0.202 0.033,-0.432 0.059,-0.669 0.064,-0.579 0.158,-1.209 0.209,-1.532 0.038,-0.241 0.087,-0.494 0.133,-0.715 0.059,-0.281 0.117,-0.518 0.149,-0.622 0.021,-0.068 0.04,-0.216 0.053,-0.371 0.016,-0.194 0.024,-0.39 0.017,-0.46 -0.006,-0.064 0.016,-0.202 0.05,-0.363 0.035,-0.169 0.084,-0.37 0.125,-0.53z"/>
 </g>
</svg>
